:FULLY-SPECIFIED
:DEGREES
1143
root 6.89801 16.4273 -2.85651 3795.31 -95.9023 -3781.81
lowerback 1.52171 -1.27248 3.44265
upperback 2.60734 -1.74704 1.40653
thorax 1.76639 -0.841729 -0.484801
lowerneck -20.1902 3.6115 -2.62127
upperneck 37.5892 4.86846 1.30443
head 16.9457 1.42867 1.9059
rclavicle 2.78299e-015 1.23246e-014
rhumerus -31.8421 -20.4738 -74.17
rradius 16.565
rwrist 38.7817
rhand -16.0489 -12.073
rfingers 7.12502
rthumb 10.153 -41.808
lclavicle 2.78299e-015 1.23246e-014
lhumerus -25.6103 -5.05997 83.6224
lradius 48.0823
lwrist 10.3098
lhand -29.7367 3.62268
lfingers 7.12502
lthumb -3.06319 33.5804
rfemur -40.0373 0.407082 23.5329
rtibia 40.101
rfoot -7.34555 -3.14703
rtoes -4.09355
lfemur -18.4759 3.33814 -15.3594
ltibia 60.4582
lfoot 4.55525 -4.60688
ltoes -20.119
1144
root 6.91174 16.4658 -2.87384 3796.34 -95.8295 -3782.75
lowerback 1.45025 -1.06969 3.38627
upperback 2.59154 -1.4802 1.42885
thorax 1.80088 -0.709365 -0.432313
lowerneck -20.2422 3.52182 -2.61999
upperneck 37.6613 4.71786 1.34983
head 17.0002 1.37251 1.9003
rclavicle 3.61788e-014 -1.47101e-014
rhumerus -31.1362 -19.0955 -75.0085
rradius 17.0648
rwrist 37.5131
rhand -16.4652 -11.9257
rfingers 7.12502
rthumb 9.75138 -41.6799
lclavicle 3.61788e-014 -1.47101e-014
lhumerus -25.9918 -4.87823 84.1055
lradius 47.1102
lwrist 9.92793
lhand -29.2972 3.34531
lfingers 7.12502
lthumb -2.63878 33.3087
rfemur -39.0307 0.571116 23.7525
rtibia 39.691
rfoot -7.89787 -3.18462
rtoes -3.93798
lfemur -20.5106 3.85399 -15.2385
ltibia 62.2678
lfoot 4.39032 -4.68546
ltoes -19.8803
1145
root 6.92506 16.502 -2.89332 3796.46 -95.6252 -3782.8
lowerback 1.40453 -0.841398 3.17722
upperback 2.57389 -1.17666 1.40296
thorax 1.82097 -0.560842 -0.342891
lowerneck -20.2009 3.44982 -2.58725
upperneck 37.6995 4.59884 1.33768
head 17.0161 1.32668 1.86601
rclavicle -1.63003e-014 3.57812e-015
rhumerus -30.4601 -17.6778 -75.8517
rradius 17.6699
rwrist 36.072
rhand -16.5681 -11.8986
rfingers 7.12502
rthumb 9.65204 -41.6575
lclavicle -1.63003e-014 3.57812e-015
lhumerus -26.4171 -4.62105 84.4745
lradius 46.1628
lwrist 9.15282
lhand -28.4415 3.466
lfingers 7.12502
lthumb -1.81231 33.438
rfemur -37.9996 0.845933 23.8508
rtibia 39.2916
rfoot -8.47641 -3.25147
rtoes -4.30092
lfemur -22.4135 4.50704 -15.3031
ltibia 63.7273
lfoot 4.14662 -4.83767
ltoes -20.2581
1146
root 6.94101 16.5383 -2.91262 3796.81 -95.3498 -3783.09
lowerback 1.3841 -0.601203 2.96847
upperback 2.54469 -0.85497 1.35562
thorax 1.81331 -0.403302 -0.274638
lowerneck -20.1648 3.39345 -2.55236
upperneck 37.7421 4.4847 1.36957
head 17.0334 1.28942 1.85217
rclavicle -1.19271e-015 5.1684e-015
rhumerus -29.8242 -16.0305 -76.7931
rradius 18.3798
rwrist 34.4972
rhand -17.0579 -12.15
rfingers 7.12502
rthumb 9.17944 -41.9302
lclavicle -1.19271e-015 5.1684e-015
lhumerus -26.8988 -4.46941 84.7783
lradius 45.1878
lwrist 8.47912
lhand -27.662 3.5726
lfingers 7.12502
lthumb -1.05948 33.5497
rfemur -36.9431 1.2698 23.9261
rtibia 38.8396
rfoot -9.00243 -3.37131
rtoes -4.26252
lfemur -24.2769 5.16317 -15.4215
ltibia 64.8396
lfoot 3.77039 -4.94688
ltoes -20.5524
1147
root 6.95347 16.5762 -2.93142 3796.5 -95.1016 -3782.74
lowerback 1.31343 -0.342069 2.76555
upperback 2.55779 -0.509868 1.23724
thorax 1.87558 -0.231996 -0.282581
lowerneck -20.1588 3.33174 -2.46925
upperneck 37.7674 4.33498 1.43287
head 17.0503 1.25112 1.83772
rclavicle -4.77083e-015 1.59028e-014
rhumerus -29.2731 -14.7122 -77.6065
rradius 19.1898
rwrist 33.1771
rhand -17.61 -12.241
rfingers 7.12502
rthumb 8.64669 -42.044
lclavicle -4.77083e-015 1.59028e-014
lhumerus -27.2963 -4.42131 84.9936
lradius 44.1353
lwrist 7.64645
lhand -26.9275 3.22677
lfingers 7.12502
lthumb -0.35002 33.2062
rfemur -35.8506 1.70971 23.9213
rtibia 38.4167
rfoot -9.50383 -3.53066
rtoes -4.08552
lfemur -26.0276 5.70502 -15.6581
ltibia 65.633
lfoot 3.40774 -5.14398
ltoes -19.9715
1148
root 6.96703 16.618 -2.94914 3796.89 -94.7511 -3783.08
lowerback 1.24158 -0.0617098 2.59375
upperback 2.58278 -0.13731 1.13817
thorax 1.95064 -0.0467987 -0.286976
lowerneck -20.1785 3.28383 -2.38659
upperneck 37.7364 4.23552 1.44022
head 17.0443 1.22791 1.80776
rclavicle 1.98785e-014 3.77691e-015
rhumerus -28.6448 -13.3924 -78.3755
rradius 20.004
rwrist 31.7633
rhand -18.3084 -12.3174
rfingers 7.12502
rthumb 7.97265 -42.1471
lclavicle 1.98785e-014 3.77691e-015
lhumerus -27.6678 -4.3426 85.1898
lradius 43.0117
lwrist 6.99747
lhand -26.0697 3.15955
lfingers 7.12502
lthumb 0.478466 33.1388
rfemur -34.7302 2.4618 23.9061
rtibia 37.9384
rfoot -10.0395 -3.89665
rtoes -4.26654
lfemur -27.7321 6.3267 -15.9205
ltibia 66.1386
lfoot 3.0311 -5.48813
ltoes -20.4601
1149
root 6.9824 16.6415 -2.9646 3796.94 -94.5503 -3783.16
lowerback 1.25315 0.158508 2.48148
upperback 2.58387 0.159419 1.02374
thorax 1.95208 0.100957 -0.340056
lowerneck -20.1333 3.2324 -2.36324
upperneck 37.7611 4.12207 1.50342
head 17.0479 1.19504 1.80946
rclavicle -3.18055e-015 5.36719e-015
rhumerus -28.1765 -12.1236 -79.0804
rradius 20.8962
rwrist 30.5244
rhand -19.1208 -12.4933
rfingers 7.12502
rthumb 7.18856 -42.3512
lclavicle -3.18055e-015 5.36719e-015
lhumerus -28.1426 -4.3284 85.3371
lradius 41.9606
lwrist 6.47835
lhand -25.2477 3.19909
lfingers 7.12502
lthumb 1.27234 33.175
rfemur -33.552 2.71893 24.0091
rtibia 37.4716
rfoot -10.5272 -3.91778
rtoes -4.49323
lfemur -29.3633 6.71407 -16.1995
ltibia 66.4402
lfoot 2.60753 -5.84426
ltoes -20.0955
1150
root 7.00259 16.6643 -2.9749 3800.38 -94.1483 -3786.46
lowerback 1.12585 0.449998 2.56922
upperback 2.53427 0.547038 0.951331
thorax 1.98369 0.297545 -0.460525
lowerneck -20.0805 3.20686 -2.30936
upperneck 37.7402 4.05755 1.51959
head 17.0266 1.18174 1.79326
rclavicle -1.35174e-014 1.39149e-015
rhumerus -27.6336 -10.8211 -79.7403
rradius 21.772
rwrist 29.2248
rhand -20.0609 -12.643
rfingers 7.12502
rthumb 6.28098 -42.5299
lclavicle -1.35174e-014 1.39149e-015
lhumerus -28.6042 -4.30388 85.4816
lradius 40.8162
lwrist 6.14972
lhand -24.7202 2.87024
lfingers 7.12502
lthumb 1.78176 32.8425
rfemur -32.5789 3.26639 24.2612
rtibia 36.9678
rfoot -11.0741 -4.00104
rtoes -4.81891
lfemur -31.1741 7.32669 -16.3905
ltibia 66.5285
lfoot 2.07377 -6.23902
ltoes -20.3115
1151
root 7.01367 16.6888 -2.98791 3803.46 -94.0096 -3789.62
lowerback 1.11511 0.656975 2.68781
upperback 2.56577 0.822098 0.885797
thorax 2.03264 0.43842 -0.591608
lowerneck -20.056 3.19578 -2.18123
upperneck 37.7396 4.01586 1.46354
head 17.0277 1.17679 1.7375
rclavicle 9.54166e-015 9.93923e-016
rhumerus -27.1169 -9.57895 -80.3567
rradius 22.7061
rwrist 27.8474
rhand -20.9508 -12.7949
rfingers 7.12502
rthumb 5.42181 -42.7055
lclavicle 9.54166e-015 9.93923e-016
lhumerus -29.0935 -4.20633 85.5329
lradius 39.7606
lwrist 5.67917
lhand -23.9471 2.65949
lfingers 7.12502
lthumb 2.52846 32.6242
rfemur -31.2968 3.69182 24.5719
rtibia 36.4735
rfoot -11.679 -4.17903
rtoes -4.62375
lfemur -32.6487 7.68046 -16.5232
ltibia 66.3463
lfoot 1.62657 -6.68806
ltoes -19.8175
1152
root 7.0293 16.7063 -2.9972 3805.56 -93.8155 -3791.67
lowerback 1.06337 0.85728 2.73236
upperback 2.53191 1.09075 0.788604
thorax 2.0379 0.57485 -0.713449
lowerneck -20.0149 3.18465 -2.14488
upperneck 37.7641 3.96872 1.50233
head 17.0315 1.16876 1.73903
rclavicle 2.3059e-014 1.07344e-014
rhumerus -26.6527 -8.35484 -80.8887
rradius 23.7067
rwrist 26.6831
rhand -21.7672 -12.9652
rfingers 7.12502
rthumb 4.63355 -42.8945
lclavicle 2.3059e-014 1.07344e-014
lhumerus -29.6199 -4.12314 85.5931
lradius 38.818
lwrist 5.52881
lhand -23.2652 2.81042
lfingers 7.12502
lthumb 3.187 32.7663
rfemur -30.1773 4.04944 24.7692
rtibia 35.9474
rfoot -12.1269 -4.34234
rtoes -4.90331
lfemur -34.247 7.97572 -16.8633
ltibia 65.9545
lfoot 1.03791 -7.01718
ltoes -19.8782
